<mxfile host="app.diagrams.net" modified="2024-01-13T02:15:05.952Z" agent="Mozilla/5.0 (Windows NT 10.0; Win64; x64) AppleWebKit/537.36 (KHTML, like Gecko) Chrome/92.0.4515.159 Safari/537.36" etag="wYbNGS82wEdJeOldj1pl" version="22.1.17" type="github">
  <diagram name="第 1 页" id="VAwiPb71vYeOXqFpF4Ir">
    <mxGraphModel dx="1050" dy="558" grid="0" gridSize="10" guides="1" tooltips="1" connect="1" arrows="1" fold="1" page="1" pageScale="1" pageWidth="827" pageHeight="1169" math="0" shadow="0">
      <root>
        <mxCell id="0" />
        <mxCell id="1" parent="0" />
        <mxCell id="cz9zjMkKNlUiRi9sa1LU-6" value="" style="group" parent="1" vertex="1" connectable="0">
          <mxGeometry x="383" y="134" width="103" height="150" as="geometry" />
        </mxCell>
        <mxCell id="cz9zjMkKNlUiRi9sa1LU-1" value="内存地址0xc00000c360" style="rounded=0;whiteSpace=wrap;html=1;fillColor=#ffe6cc;strokeColor=#d79b00;" parent="cz9zjMkKNlUiRi9sa1LU-6" vertex="1">
          <mxGeometry width="103.00000000000001" height="38.29787234042553" as="geometry" />
        </mxCell>
        <mxCell id="cz9zjMkKNlUiRi9sa1LU-2" value="p" style="rounded=0;whiteSpace=wrap;html=1;fillColor=#dae8fc;strokeColor=#6c8ebf;" parent="cz9zjMkKNlUiRi9sa1LU-6" vertex="1">
          <mxGeometry y="35.1063829787234" width="103.00000000000001" height="38.29787234042553" as="geometry" />
        </mxCell>
        <mxCell id="cz9zjMkKNlUiRi9sa1LU-3" value="len" style="rounded=0;whiteSpace=wrap;html=1;fillColor=#dae8fc;strokeColor=#6c8ebf;" parent="cz9zjMkKNlUiRi9sa1LU-6" vertex="1">
          <mxGeometry y="73.40425531914893" width="103.00000000000001" height="38.29787234042553" as="geometry" />
        </mxCell>
        <mxCell id="cz9zjMkKNlUiRi9sa1LU-4" value="cap" style="rounded=0;whiteSpace=wrap;html=1;fillColor=#dae8fc;strokeColor=#6c8ebf;" parent="cz9zjMkKNlUiRi9sa1LU-6" vertex="1">
          <mxGeometry y="111.70212765957447" width="103.00000000000001" height="38.29787234042553" as="geometry" />
        </mxCell>
        <mxCell id="cz9zjMkKNlUiRi9sa1LU-7" value="main 中的s" style="text;html=1;strokeColor=none;fillColor=none;align=center;verticalAlign=middle;whiteSpace=wrap;rounded=0;" parent="1" vertex="1">
          <mxGeometry x="383" y="84" width="93" height="21" as="geometry" />
        </mxCell>
        <mxCell id="cz9zjMkKNlUiRi9sa1LU-11" value="" style="group;fillColor=#ffe6cc;strokeColor=#d79b00;" parent="1" vertex="1" connectable="0">
          <mxGeometry x="586" y="164" width="98" height="98" as="geometry" />
        </mxCell>
        <mxCell id="cz9zjMkKNlUiRi9sa1LU-9" value="内存地址&lt;br&gt;0xc00000c330" style="rounded=0;whiteSpace=wrap;html=1;fillColor=#ffe6cc;strokeColor=#d79b00;" parent="cz9zjMkKNlUiRi9sa1LU-11" vertex="1">
          <mxGeometry width="98" height="49" as="geometry" />
        </mxCell>
        <mxCell id="cz9zjMkKNlUiRi9sa1LU-10" value="[ ]int{1,2,3,4,5,6}" style="rounded=0;whiteSpace=wrap;html=1;fillColor=#dae8fc;strokeColor=#6c8ebf;" parent="cz9zjMkKNlUiRi9sa1LU-11" vertex="1">
          <mxGeometry y="49" width="98" height="49" as="geometry" />
        </mxCell>
        <mxCell id="cz9zjMkKNlUiRi9sa1LU-14" style="edgeStyle=orthogonalEdgeStyle;rounded=0;orthogonalLoop=1;jettySize=auto;html=1;entryX=0;entryY=0.5;entryDx=0;entryDy=0;" parent="1" source="cz9zjMkKNlUiRi9sa1LU-2" target="cz9zjMkKNlUiRi9sa1LU-9" edge="1">
          <mxGeometry relative="1" as="geometry" />
        </mxCell>
        <mxCell id="cz9zjMkKNlUiRi9sa1LU-20" value="Assign11&amp;nbsp;中的s" style="text;html=1;strokeColor=none;fillColor=none;align=center;verticalAlign=middle;whiteSpace=wrap;rounded=0;" parent="1" vertex="1">
          <mxGeometry x="45" y="84" width="93" height="21" as="geometry" />
        </mxCell>
        <mxCell id="cz9zjMkKNlUiRi9sa1LU-16" value="内存地址0xc00000c340" style="rounded=0;whiteSpace=wrap;html=1;fillColor=#ffe6cc;strokeColor=#d79b00;" parent="1" vertex="1">
          <mxGeometry x="45" y="134" width="103.00000000000001" height="38.29787234042553" as="geometry" />
        </mxCell>
        <mxCell id="8dKl3AIT-_E8ImlYzT4d-1" style="edgeStyle=orthogonalEdgeStyle;rounded=0;orthogonalLoop=1;jettySize=auto;html=1;entryX=0;entryY=0.5;entryDx=0;entryDy=0;" edge="1" parent="1" source="cz9zjMkKNlUiRi9sa1LU-17" target="cz9zjMkKNlUiRi9sa1LU-1">
          <mxGeometry relative="1" as="geometry" />
        </mxCell>
        <mxCell id="cz9zjMkKNlUiRi9sa1LU-17" value="&lt;br style=&quot;border-color: var(--border-color);&quot;&gt;0xc00000c360" style="rounded=0;whiteSpace=wrap;html=1;fillColor=#dae8fc;strokeColor=#6c8ebf;" parent="1" vertex="1">
          <mxGeometry x="45" y="169.1063829787234" width="103.00000000000001" height="38.29787234042553" as="geometry" />
        </mxCell>
        <mxCell id="cz9zjMkKNlUiRi9sa1LU-22" value="这里存储的是 main 中的 s 的地址" style="text;html=1;strokeColor=none;fillColor=none;align=center;verticalAlign=middle;whiteSpace=wrap;rounded=0;" parent="1" vertex="1">
          <mxGeometry x="37" y="219" width="207" height="13" as="geometry" />
        </mxCell>
        <mxCell id="cz9zjMkKNlUiRi9sa1LU-23" value="执行*s = []int{6, 6, 6} 之后" style="text;html=1;strokeColor=none;fillColor=none;align=center;verticalAlign=middle;whiteSpace=wrap;rounded=0;" parent="1" vertex="1">
          <mxGeometry x="31" y="310" width="192" height="35" as="geometry" />
        </mxCell>
        <mxCell id="cz9zjMkKNlUiRi9sa1LU-24" value="" style="group" parent="1" vertex="1" connectable="0">
          <mxGeometry x="385" y="382" width="103" height="150" as="geometry" />
        </mxCell>
        <mxCell id="cz9zjMkKNlUiRi9sa1LU-25" value="内存地址0xc00000c360" style="rounded=0;whiteSpace=wrap;html=1;fillColor=#ffe6cc;strokeColor=#d79b00;" parent="cz9zjMkKNlUiRi9sa1LU-24" vertex="1">
          <mxGeometry width="103.00000000000001" height="38.29787234042553" as="geometry" />
        </mxCell>
        <mxCell id="cz9zjMkKNlUiRi9sa1LU-26" value="p" style="rounded=0;whiteSpace=wrap;html=1;fillColor=#dae8fc;strokeColor=#6c8ebf;" parent="cz9zjMkKNlUiRi9sa1LU-24" vertex="1">
          <mxGeometry y="35.1063829787234" width="103.00000000000001" height="38.29787234042553" as="geometry" />
        </mxCell>
        <mxCell id="cz9zjMkKNlUiRi9sa1LU-27" value="len" style="rounded=0;whiteSpace=wrap;html=1;fillColor=#dae8fc;strokeColor=#6c8ebf;" parent="cz9zjMkKNlUiRi9sa1LU-24" vertex="1">
          <mxGeometry y="73.40425531914893" width="103.00000000000001" height="38.29787234042553" as="geometry" />
        </mxCell>
        <mxCell id="cz9zjMkKNlUiRi9sa1LU-28" value="cap" style="rounded=0;whiteSpace=wrap;html=1;fillColor=#dae8fc;strokeColor=#6c8ebf;" parent="cz9zjMkKNlUiRi9sa1LU-24" vertex="1">
          <mxGeometry y="111.70212765957447" width="103.00000000000001" height="38.29787234042553" as="geometry" />
        </mxCell>
        <mxCell id="cz9zjMkKNlUiRi9sa1LU-29" value="main 中的s" style="text;html=1;strokeColor=none;fillColor=none;align=center;verticalAlign=middle;whiteSpace=wrap;rounded=0;" parent="1" vertex="1">
          <mxGeometry x="385" y="332" width="93" height="21" as="geometry" />
        </mxCell>
        <mxCell id="cz9zjMkKNlUiRi9sa1LU-30" value="" style="group;fillColor=#ffe6cc;strokeColor=#d79b00;" parent="1" vertex="1" connectable="0">
          <mxGeometry x="588" y="412" width="98" height="98" as="geometry" />
        </mxCell>
        <mxCell id="cz9zjMkKNlUiRi9sa1LU-31" value="内存地址&lt;br&gt;0xc00000c350" style="rounded=0;whiteSpace=wrap;html=1;fillColor=#ffe6cc;strokeColor=#d79b00;" parent="cz9zjMkKNlUiRi9sa1LU-30" vertex="1">
          <mxGeometry width="98" height="49" as="geometry" />
        </mxCell>
        <mxCell id="cz9zjMkKNlUiRi9sa1LU-32" value="[ ]int{6,6,6,}" style="rounded=0;whiteSpace=wrap;html=1;fillColor=#dae8fc;strokeColor=#6c8ebf;" parent="cz9zjMkKNlUiRi9sa1LU-30" vertex="1">
          <mxGeometry y="49" width="98" height="49" as="geometry" />
        </mxCell>
        <mxCell id="cz9zjMkKNlUiRi9sa1LU-33" style="edgeStyle=orthogonalEdgeStyle;rounded=0;orthogonalLoop=1;jettySize=auto;html=1;entryX=0;entryY=0.5;entryDx=0;entryDy=0;" parent="1" source="cz9zjMkKNlUiRi9sa1LU-26" target="cz9zjMkKNlUiRi9sa1LU-31" edge="1">
          <mxGeometry relative="1" as="geometry" />
        </mxCell>
      </root>
    </mxGraphModel>
  </diagram>
</mxfile>
